<?xml version="1.0" encoding="UTF-8" standalone="no"?>
<!-- Created with Inkscape (http://www.inkscape.org/) -->
<!DOCTYPE svg PUBLIC "-//W3C//DTD SVG 1.1//EN" "http://www.w3.org/Graphics/SVG/1.1/DTD/svg11.dtd">
<svg
   xmlns:svg="http://www.w3.org/2000/svg"
   xmlns="http://www.w3.org/2000/svg"
   version="1.1"
   width="400"
   height="255"
   id="svg2816"
   xml:space="preserve"><defs
     id="defs2820"><clipPath
       id="clipPath4006"><path
         d="m 546.823,684.629 0,-30.837 212.491,0 0,30.837"
         id="path4008" /></clipPath><clipPath
       id="clipPath4060"><path
         d="m 15.827,724.173 992.126,0 0,-708.661 -992.126,0 0,708.661 z"
         id="path4062" /></clipPath><clipPath
       id="clipPath4066"><path
         d="m 0,740.31 1020.48,0 L 1020.48,0 0,0 0,740.31 z"
         id="path4068" /></clipPath></defs><g
     transform="matrix(1.25,0,0,-1.25,-459.38853,736.10044)"
     id="g2826"><g
       transform="matrix(3.5767058,0,0,3.5767058,-938.96729,-984.45757)"
       id="g2901"><g
         transform="matrix(1.7178332,0,0,1.7178332,-571.83987,-738.22524)"
         id="g4002"><g
           clip-path="url(#clipPath4006)"
           id="g4004"><path
             d="m 577.676,682.644 c -0.151,-1.376 -1.732,-2.708 -3.506,-2.982 -1.774,-0.276 -3.091,0.609 -2.923,1.986 0.157,1.372 1.732,2.712 3.506,2.981 1.778,0.279 3.086,-0.614 2.923,-1.985"
             id="path4010"
             style="fill:#ef3120;fill-opacity:1;fill-rule:nonzero;stroke:none" /></g></g><path
         d="m 401.97057,403.50511 c 4.15715,-7.40042 -34.45974,-18.62475 -34.45974,-18.62475 0,0 15.68039,9.57864 16.9344,12.59172 1.92226,4.6433 -9.85349,4.82711 -1.54605,15.30418 5.12602,6.46249 17.26938,10.0957 11.2793,11.6555 -16.73685,4.35642 -26.66765,10.29669 -26.66765,10.29669 24.21458,-1.82606 55.4843,-9.62674 50.31018,-16.14592 -2.38607,-3.01823 -18.92193,-3.26903 -28.86818,-6.39377 -8.091,-2.54411 10.59216,-4.37704 13.01774,-8.68365"
         id="path4012"
         style="fill:#ef3120;fill-opacity:1;fill-rule:nonzero;stroke:none" /><path
         d="m 426.17484,398.70549 c -0.41744,-0.16835 -0.83315,-0.11854 -1.19905,0.27828 l -8.16486,7.76633 0,-8.12535 -2.21772,0 0,11.43905 c 0,0.44663 0.26798,0.84861 0.68713,1.01352 0.414,0.18381 0.89843,0.079 1.19218,-0.21301 l 8.14768,-7.78522 0.0206,8.0824 2.21944,0 0,-11.42015 c 0,-0.45007 -0.2697,-0.86923 -0.68541,-1.03585"
         id="path4014"
         style="fill:black;fill-opacity:1;fill-rule:nonzero;stroke:none" /><path
         d="m 432.46229,398.62475 2.21927,0 0,12.53777 -2.21927,0 0,-12.53777 z"
         id="path4034"
         style="fill:black;fill-opacity:1;fill-rule:nonzero;stroke:none" /><path
         d="m 450.28924,411.16149 0,-4.8941 -8.15112,0 0,4.8941 -2.22288,0 0,-12.53674 2.22288,0 0,5.42491 8.15112,0 0,-5.42491 2.216,0 0,12.53674 -2.216,0"
         id="path4046"
         style="fill:black;fill-opacity:1;fill-rule:nonzero;stroke:none" /></g><g
       transform="matrix(1.7178332,0,0,1.7178332,-571.83987,-738.22524)"
       id="g4056"><g
         clip-path="url(#clipPath4060)"
         id="g4058"><g
           clip-path="url(#clipPath4066)"
           id="g4064" /></g></g></g></svg>